<svg width="58" height="56" viewBox="0 0 58 56" fill="none" xmlns="http://www.w3.org/2000/svg">
<path d="M0 10C0 4.47716 4.47715 0 10 0H47.6C53.1228 0 57.6 4.47715 57.6 10V45.9301C57.6 51.4529 53.1228 55.9301 47.6 55.9301H10C4.47716 55.9301 0 51.4529 0 45.9301V10Z" fill="#0066FF" fill-opacity="0.082"/>
<path d="M28.8 19.7983C28.8014 19.3317 28.7094 18.8695 28.5296 18.4389C28.3497 18.0084 28.0855 17.6181 27.7526 17.2911C27.4197 16.9641 27.0248 16.707 26.5911 16.5349C26.1574 16.3627 25.6936 16.2791 25.2271 16.2888C24.7605 16.2985 24.3007 16.4014 23.8745 16.5915C23.4483 16.7815 23.0645 17.0549 22.7455 17.3955C22.4265 17.7361 22.1788 18.137 22.0171 18.5747C21.8553 19.0124 21.7827 19.478 21.8035 19.9442C21.1177 20.1205 20.4811 20.4506 19.9418 20.9094C19.4025 21.3682 18.9746 21.9437 18.6907 22.5923C18.4067 23.241 18.2741 23.9457 18.3028 24.6532C18.3315 25.3607 18.5209 26.0524 18.8565 26.6758C18.2664 27.1553 17.8023 27.7716 17.5047 28.4713C17.2071 29.1709 17.085 29.9327 17.1489 30.6903C17.2129 31.4479 17.461 32.1785 17.8716 32.8184C18.2823 33.4582 18.843 33.9881 19.5052 34.3618C19.4234 34.9944 19.4722 35.6371 19.6485 36.2501C19.8249 36.8631 20.125 37.4335 20.5304 37.926C20.9358 38.4184 21.4379 38.8226 22.0056 39.1134C22.5733 39.4042 23.1946 39.5756 23.8311 39.6169C24.4677 39.6582 25.1059 39.5686 25.7065 39.3535C26.307 39.1385 26.8571 38.8027 27.3227 38.3667C27.7884 37.9308 28.1597 37.404 28.4138 36.8189C28.6679 36.2338 28.7993 35.6029 28.8 34.965V19.7983Z" stroke="#0066FF" stroke-width="2.33333" stroke-linecap="round" stroke-linejoin="round"/>
<path d="M28.8 19.7983C28.7986 19.3317 28.8906 18.8695 29.0704 18.4389C29.2503 18.0084 29.5145 17.6181 29.8474 17.2911C30.1803 16.9641 30.5752 16.707 31.0089 16.5349C31.4426 16.3627 31.9064 16.2791 32.3729 16.2888C32.8395 16.2985 33.2993 16.4014 33.7255 16.5915C34.1517 16.7815 34.5356 17.0549 34.8545 17.3955C35.1735 17.7361 35.4212 18.137 35.5829 18.5747C35.7447 19.0124 35.8173 19.478 35.7965 19.9442C36.4823 20.1205 37.1189 20.4506 37.6582 20.9094C38.1975 21.3682 38.6254 21.9437 38.9094 22.5923C39.1933 23.241 39.326 23.9457 39.2972 24.6532C39.2685 25.3607 39.0791 26.0524 38.7435 26.6758C39.3336 27.1553 39.7977 27.7716 40.0953 28.4713C40.3929 29.1709 40.515 29.9327 40.4511 30.6903C40.3871 31.4479 40.1391 32.1785 39.7284 32.8184C39.3177 33.4582 38.757 33.9881 38.0948 34.3618C38.1766 34.9944 38.1278 35.6371 37.9515 36.2501C37.7751 36.8631 37.475 37.4335 37.0696 37.926C36.6642 38.4184 36.1621 38.8226 35.5944 39.1134C35.0267 39.4042 34.4054 39.5756 33.7689 39.6169C33.1323 39.6582 32.4941 39.5686 31.8936 39.3535C31.293 39.1385 30.7429 38.8027 30.2773 38.3667C29.8116 37.9308 29.4403 37.404 29.1862 36.8189C28.9321 36.2338 28.8007 35.6029 28.8 34.965V19.7983Z" stroke="#0066FF" stroke-width="2.33333" stroke-linecap="round" stroke-linejoin="round"/>
<path d="M32.3 29.1317C31.3205 28.7871 30.4652 28.1599 29.8422 27.3292C29.2192 26.4985 28.8565 25.5018 28.8 24.465C28.7435 25.5018 28.3808 26.4985 27.7578 27.3292C27.1348 28.1599 26.2795 28.7871 25.3 29.1317" stroke="#0066FF" stroke-width="2.33333" stroke-linecap="round" stroke-linejoin="round"/>
<path d="M35.3322 21.5484C35.6145 21.0591 35.7742 20.5087 35.7977 19.9442" stroke="#0066FF" stroke-width="2.33333" stroke-linecap="round" stroke-linejoin="round"/>
<path d="M21.8035 19.9442C21.8266 20.5086 21.9859 21.059 22.2678 21.5484" stroke="#0066FF" stroke-width="2.33333" stroke-linecap="round" stroke-linejoin="round"/>
<path d="M18.8565 26.677C19.0699 26.5032 19.2983 26.3486 19.539 26.215" stroke="#0066FF" stroke-width="2.33333" stroke-linecap="round" stroke-linejoin="round"/>
<path d="M38.061 26.215C38.3017 26.3486 38.5301 26.5032 38.7435 26.677" stroke="#0066FF" stroke-width="2.33333" stroke-linecap="round" stroke-linejoin="round"/>
<path d="M21.8 34.965C20.996 34.9654 20.2055 34.758 19.5052 34.363" stroke="#0066FF" stroke-width="2.33333" stroke-linecap="round" stroke-linejoin="round"/>
<path d="M38.0948 34.363C37.3945 34.758 36.604 34.9654 35.8 34.965" stroke="#0066FF" stroke-width="2.33333" stroke-linecap="round" stroke-linejoin="round"/>
</svg>
