<svg width="58" height="56" viewBox="0 0 58 56" fill="none" xmlns="http://www.w3.org/2000/svg">
<path d="M0 10C0 4.47716 4.47715 0 10 0H47.6C53.1228 0 57.6 4.47715 57.6 10V45.9301C57.6 51.4529 53.1228 55.9301 47.6 55.9301H10C4.47716 55.9301 0 51.4529 0 45.9301V10Z" fill="#0052CC" fill-opacity="0.082"/>
<path d="M28.8 23.2983C34.599 23.2983 39.3 21.7313 39.3 19.7983C39.3 17.8653 34.599 16.2983 28.8 16.2983C23.001 16.2983 18.3 17.8653 18.3 19.7983C18.3 21.7313 23.001 23.2983 28.8 23.2983Z" stroke="#0052CC" stroke-width="2.33333" stroke-linecap="round" stroke-linejoin="round"/>
<path d="M18.3 19.7983V36.1317C18.3 37.0599 19.4062 37.9502 21.3754 38.6065C23.3445 39.2629 26.0152 39.6317 28.8 39.6317C31.5848 39.6317 34.2555 39.2629 36.2246 38.6065C38.1937 37.9502 39.3 37.0599 39.3 36.1317V19.7983" stroke="#0052CC" stroke-width="2.33333" stroke-linecap="round" stroke-linejoin="round"/>
<path d="M18.3 27.965C18.3 28.8933 19.4062 29.7835 21.3754 30.4399C23.3445 31.0963 26.0152 31.465 28.8 31.465C31.5848 31.465 34.2555 31.0963 36.2246 30.4399C38.1937 29.7835 39.3 28.8933 39.3 27.965" stroke="#0052CC" stroke-width="2.33333" stroke-linecap="round" stroke-linejoin="round"/>
</svg>
