<svg width="210" height="60" viewBox="0 0 210 60" fill="none" xmlns="http://www.w3.org/2000/svg">
    <g clip-path="url(#clip0)">
        <path d="M15.7925 55.5632C16.2364 56.4183 16.7783 57.2187 17.4073 57.9484C17.748 57.8818 18.2221 57.7558 18.8369 57.578C19.3036 57.4373 19.9036 57.2151 20.4369 57.0225L20.8443 56.8669C20.7851 56.5558 20.748 56.3188 20.7258 56.1262C19.0975 55.8169 17.4486 55.6288 15.7925 55.5632Z" fill="#0A2C37"></path>
        <path d="M46.3557 17.4594C46.3557 17.4594 39.3186 29.2224 38.252 39.9483C44.3148 41.387 50.456 42.4728 56.6445 43.2002C60.6371 31.5335 58.2223 19.3705 58.2223 19.3705C60.6223 17.9853 63.0816 13.9631 63.0816 13.9631C61.489 6.60016 56.1483 0.703857 56.1483 0.703857C56.1483 0.703857 47.926 6.00015 44.2149 12.4742C44.2149 12.4742 45.3112 15.9779 46.3557 17.4594Z" fill="#0A2C37"></path>
        <path d="M-4.34815 51.8372C-10.1185 47.3927 -9.1037 39.3557 -8.4 35.9705C-7.97037 33.9112 -7.4 29.8149 -8.56296 27.0816C-9.27264 25.4577 -10.5321 24.1359 -12.12 23.3488C-13.7078 22.5616 -15.5223 22.3595 -17.2444 22.7779C-22.1037 24.1112 -23.5037 29.3038 -21.0074 32.4075C-20.6541 32.9078 -20.1678 33.2992 -19.6036 33.5374C-19.0394 33.7757 -18.4198 33.8513 -17.8148 33.7557C-16.9185 33.6075 -17.1185 33.0149 -17.5481 32.6668C-18.1131 32.1966 -18.5128 31.5581 -18.6889 30.8446C-19.0593 29.3186 -18.4593 27.2816 -16.5407 26.8372C-14.6222 26.3927 -12.2296 28.2372 -12.5926 31.4223C-12.9556 34.6075 -16.4593 41.2149 -13.7407 49.7705C-12.1111 54.8964 -6.94815 59.0149 0.0814819 61.0446C0.607407 61.2001 1.14074 61.3335 1.68889 61.4594C-3.19259 57.4594 -4.19259 52.8372 -4.34815 51.8372Z" fill="#0A2C37"></path>
        <path d="M17.978 58.5705C19.2089 59.8155 20.7165 60.7521 22.378 61.3038C21.7837 60.1238 21.3216 58.8817 21.0002 57.6001L20.6965 57.7112C20.1484 57.9186 19.5336 58.1408 19.0447 58.289C18.5558 58.4371 18.2817 58.4964 17.978 58.5705Z" fill="#0A2C37"></path>
        <path d="M6.22976 54.0594C2.78532 49.9261 2.24458 44.7039 3.81495 39.3409C5.99272 31.9335 15.6149 24.2594 19.6446 20.9483C23.6742 17.6372 29.2742 13.0816 29.1779 6.82238C29.1186 1.90386 25.9631 -0.592437 23.1705 -1.24429C21.7694 -1.62687 20.288 -1.59996 18.9017 -1.16674C17.5154 -0.733525 16.2822 0.0878577 15.3483 1.20016C12.7853 4.37793 14.1631 7.76312 16.089 9.10386C16.6111 9.50414 17.2351 9.7497 17.8899 9.81257C18.5447 9.87543 19.2041 9.75306 19.7927 9.45942C20.3779 9.0446 20.5335 8.33349 19.6964 8.22979C17.2742 7.92608 16.5631 5.60756 17.9409 3.86682C18.591 3.13912 19.4889 2.67963 20.4594 2.57793C21.3038 2.45942 24.5112 2.70386 24.7409 5.85201C25.0149 9.65942 21.3779 13.0965 16.9335 16.1039C10.6224 20.4224 0.54828 26.7039 -3.02209 36.9557C-4.75646 41.6274 -4.98696 46.7244 -3.68135 51.5335C-2.53761 55.7017 0.0177402 59.3437 3.54828 61.8372C4.87563 62.8615 6.29103 63.7662 7.77791 64.5409C9.48013 65.4618 11.3219 66.0974 13.2298 66.4224C11.2421 64.9868 9.58769 63.139 8.3796 61.0054C7.17152 58.8717 6.43821 56.5025 6.22976 54.0594Z" fill="#0A2C37"></path>
        <path d="M24.4372 64.5409C23.8539 63.8088 23.3264 63.0337 22.8594 62.2224C20.7117 61.645 18.7609 60.4955 17.215 58.8965C15.9078 57.6576 14.9694 56.0807 14.5039 54.3409C13.8861 50.9947 14.2541 47.5411 15.5632 44.4002C17.1854 40.252 21.1557 34.9335 25.3187 31.0224C29.2446 27.3187 31.4743 24.6594 32.852 21.0446C33.9039 18.2817 34.1928 15.2669 35.8891 11.8669C38.1706 7.28167 42.5557 6.40018 44.8965 6.14833C45.8891 6.03722 45.5928 5.49648 45.0595 5.25204C41.5854 3.62982 36.378 4.7187 33.2076 9.00759C30.2446 12.9483 30.2446 14.8594 28.2817 18.978C26.9854 21.6594 24.8817 23.7928 21.2224 27.1261C16.4743 31.415 12.7928 34.8668 10.0594 39.7187C7.41841 44.3878 6.41457 49.806 7.2076 55.1113C7.52656 57.5285 8.39727 59.8399 9.75236 61.8667C11.1075 63.8936 12.9106 65.5816 15.0224 66.8002C19.0172 69.4788 23.823 70.6763 28.6076 70.1854C29.465 70.1075 30.318 69.9863 31.1632 69.8224C28.5388 68.6124 26.2351 66.8034 24.4372 64.5409Z" fill="#0A2C37"></path>
        <path d="M67.0221 56.7186C66.8814 51.5335 64.7629 47.089 63.874 44.2742C62.6962 40.5112 62.9777 38.252 65.0518 35.5186C65.7332 34.6223 65.5925 34.0372 64.4888 34.6816C60.2888 37.2149 59.8369 41.9038 60.9481 45.3853C62.6962 50.9038 63.0147 53.9186 62.8666 56.4964C62.6221 60.6668 60.1481 65.3853 57.5703 65.0149C55.3481 64.7038 54.3406 61.6001 55.9258 52.5186C56.8147 47.4372 56.6666 44.852 56.5925 43.9409C50.3621 43.2079 44.1791 42.1172 38.074 40.6742C37.8592 40.8964 36.5925 42.4075 34.3258 49.2149C33.4866 51.9393 31.8192 54.3343 29.5555 56.0668C30.1261 57.8322 31.0855 59.4471 32.3629 60.7927C34.6592 59.4594 37.8666 54.7557 37.8814 54.726C37.9925 55.5483 35.9406 59.2372 32.9036 61.3186C33.3419 61.7132 33.8127 62.07 34.311 62.3853C34.9031 62.7648 35.5785 62.9948 36.2792 63.0555C36.9798 63.1161 37.6847 63.0056 38.3332 62.7335C40.5555 61.8816 42.474 59.4001 43.5184 56.8075C43.3371 58.2446 42.7914 59.6115 41.9331 60.7783C41.0749 61.9451 39.9326 62.8731 38.6147 63.4742C37.8787 63.7674 37.0869 63.8939 36.2962 63.8446C35.4629 63.7599 34.6637 63.4698 33.9703 63.0001C31.282 61.2264 29.3882 58.4773 28.6888 55.3335C27.0443 49.689 28.1036 42.289 33.711 35.3335C36.8295 31.452 37.8369 29.2594 38.7999 26.2372C39.8592 22.8816 39.6888 19.3779 38.3184 17.3483C37.8592 16.6816 37.1184 16.3927 37.2592 17.9779C37.4414 20.1715 37.0321 22.3739 36.074 24.3557C34.2962 27.9112 33.0147 28.8372 29.6518 32.2594C24.674 37.3186 18.9332 45.2372 21.5629 56.3631C22.182 59.1558 23.3558 61.7957 25.0147 64.126C27.0081 66.5551 29.5991 68.4237 32.5332 69.5483C35.3926 70.687 38.5556 70.8124 41.4962 69.9038C42.5275 69.5407 43.4894 69.0047 44.3406 68.3186C45.9596 66.9649 47.1701 65.1876 47.8369 63.1853C48.2443 62.089 48.6444 59.6001 49.0073 58.0668C49.127 59.811 49.3746 61.544 49.7481 63.252C50.2646 65.7496 51.7001 67.9623 53.7703 69.452C55.1976 70.3635 56.8812 70.7896 58.5703 70.6668C64.3777 70.4223 67.2073 63.1927 67.0221 56.7186ZM53.6888 51.2075C53.4283 52.8009 52.5799 54.2388 51.311 55.2372C50.2187 56.0509 48.8693 56.4429 47.511 56.3409C47.3221 56.3271 47.1341 56.3024 46.9481 56.2668C46.1838 56.1269 45.4562 55.8319 44.8103 55.4C44.1644 54.9681 43.6138 54.4085 43.1925 53.7557C42.3495 52.3859 42.0458 50.7516 42.3406 49.1705C42.5842 47.6068 43.4313 46.201 44.7 45.2551C45.9686 44.3091 47.5577 43.8984 49.1258 44.1112C52.1925 44.6223 54.3036 47.8297 53.7036 51.2149L53.6888 51.2075Z" fill="#0A2C37"></path>
        <path d="M49.0073 44.7409C48.8443 44.7409 48.6814 44.6964 48.5258 44.6816C47.2146 44.654 45.9394 45.1111 44.9443 45.9653C43.9493 46.8196 43.3044 48.011 43.1332 49.3112C42.8611 50.7213 43.1253 52.1821 43.8739 53.4075C44.2146 53.9805 44.6744 54.4737 45.2222 54.8535C45.77 55.2333 46.3931 55.4909 47.0492 55.609C47.7052 55.727 48.379 55.7026 49.0249 55.5375C49.6707 55.3724 50.2735 55.0704 50.7925 54.652C51.9264 53.7653 52.6874 52.4863 52.9258 51.0668C53.4814 48.052 51.748 45.2298 49.0073 44.7409ZM50.2665 50.5631C49.911 52.5557 48.6147 53.9927 47.3702 53.7631C46.1258 53.5335 45.4295 51.7483 45.8221 49.7557C46.2147 47.7631 47.474 46.3335 48.7184 46.5557C49.9628 46.7779 50.6443 48.5705 50.2665 50.5631Z" fill="#0A2C37"></path>
        <path d="M49.4994 49.342C49.6125 48.7097 49.3222 48.1289 48.851 48.0446C48.3798 47.9603 47.9062 48.4046 47.7931 49.0368C47.68 49.6691 47.9703 50.25 48.4415 50.3342C48.9127 50.4185 49.3863 49.9743 49.4994 49.342Z" fill="#0A2C37"></path>
    </g>
    <path d="M97.348 42.176C96.868 42.368 96.232 42.524 95.44 42.644C94.672 42.788 93.988 42.86 93.388 42.86C91.54 42.86 90.148 42.464 89.212 41.672C88.276 40.88 87.808 39.56 87.808 37.712V27.704H85.792V24.104H87.988L89.824 18.236H93.064V24.104H97.348V27.704H93.064V36.812C93.064 37.772 93.244 38.42 93.604 38.756C93.988 39.092 94.492 39.26 95.116 39.26C95.404 39.26 95.776 39.212 96.232 39.116C96.688 39.02 97.06 38.912 97.348 38.792V42.176ZM111.067 30.404C111.067 29.66 110.863 29.024 110.455 28.496C110.047 27.944 109.399 27.668 108.511 27.668C107.671 27.668 107.023 28.004 106.567 28.676C106.135 29.324 105.919 30.14 105.919 31.124V42.5H100.735V24.104H104.623L105.271 26.804C105.367 26.54 105.607 26.168 105.991 25.688C106.399 25.208 106.975 24.764 107.719 24.356C108.487 23.948 109.387 23.744 110.419 23.744C112.075 23.744 113.347 24.26 114.235 25.292C115.147 26.324 115.603 27.692 115.603 29.396C115.603 29.756 115.579 30.116 115.531 30.476C115.507 30.836 115.483 31.088 115.459 31.232H111.067V30.404ZM135.089 38.18C135.089 38.54 135.197 38.816 135.413 39.008C135.629 39.176 135.869 39.26 136.133 39.26C136.373 39.26 136.637 39.212 136.925 39.116C137.213 39.02 137.441 38.936 137.609 38.864V42.104C136.721 42.608 135.665 42.86 134.441 42.86C132.041 42.86 130.649 41.984 130.265 40.232C128.753 41.984 126.905 42.86 124.721 42.86C122.849 42.86 121.301 42.356 120.077 41.348C118.877 40.34 118.277 38.876 118.277 36.956V24.104H123.533V35.804C123.533 36.74 123.797 37.52 124.325 38.144C124.877 38.744 125.573 39.044 126.413 39.044C127.349 39.044 128.153 38.696 128.825 38C129.497 37.28 129.833 36.416 129.833 35.408V24.104H135.089V38.18ZM140.392 42.5V16.58H145.648V42.5H140.392ZM167.51 35.624C167.51 37.232 167.126 38.588 166.358 39.692C165.59 40.772 164.57 41.576 163.298 42.104C162.05 42.608 160.682 42.86 159.194 42.86H158.618C156.914 42.86 155.378 42.5 154.01 41.78C152.642 41.06 151.562 40.028 150.77 38.684C150.002 37.316 149.618 35.696 149.618 33.824V32.78C149.618 30.932 150.014 29.324 150.806 27.956C151.598 26.588 152.666 25.544 154.01 24.824C155.378 24.104 156.914 23.744 158.618 23.744H159.194C160.682 23.744 162.062 24.056 163.334 24.68C164.606 25.28 165.626 26.168 166.394 27.344C167.162 28.496 167.546 29.864 167.546 31.448V34.184H154.946V35.048C154.946 36.248 155.294 37.256 155.99 38.072C156.71 38.864 157.682 39.26 158.906 39.26C160.01 39.26 160.874 38.96 161.498 38.36C162.146 37.736 162.47 36.824 162.47 35.624H167.51ZM158.654 27.344C157.598 27.344 156.734 27.716 156.062 28.46C155.414 29.204 155.042 30.152 154.946 31.304H162.218C162.218 30.08 161.93 29.12 161.354 28.424C160.802 27.704 159.902 27.344 158.654 27.344ZM175.97 26.804C177.482 24.764 179.438 23.744 181.838 23.744C183.71 23.744 185.246 24.248 186.446 25.256C187.67 26.264 188.282 27.728 188.282 29.648V42.5H183.026V30.8C183.026 29.864 182.75 29.096 182.198 28.496C181.67 27.872 180.986 27.56 180.146 27.56C179.21 27.56 178.406 27.92 177.734 28.64C177.062 29.336 176.726 30.188 176.726 31.196V42.5H171.47V24.104H175.394L175.97 26.804ZM196.262 36.884C196.262 37.724 196.634 38.336 197.378 38.72C198.122 39.08 199.046 39.26 200.15 39.26C201.11 39.26 201.962 39.116 202.706 38.828C203.474 38.54 203.858 38.084 203.858 37.46C203.858 36.788 203.51 36.308 202.814 36.02C202.118 35.732 201.038 35.48 199.574 35.264C198.038 35 196.778 34.712 195.794 34.4C194.81 34.088 193.958 33.548 193.238 32.78C192.542 32.012 192.194 30.944 192.194 29.576C192.194 28.328 192.554 27.272 193.274 26.408C194.018 25.52 194.99 24.86 196.19 24.428C197.414 23.972 198.746 23.744 200.186 23.744H200.906C202.178 23.744 203.378 23.96 204.506 24.392C205.658 24.8 206.582 25.388 207.278 26.156C207.974 26.9 208.322 27.752 208.322 28.712C208.322 28.904 208.31 29.084 208.286 29.252C208.262 29.396 208.25 29.48 208.25 29.504H203.642C203.642 28.064 202.538 27.344 200.33 27.344C199.322 27.344 198.506 27.488 197.882 27.776C197.282 28.064 196.982 28.46 196.982 28.964C196.982 29.564 197.306 29.984 197.954 30.224C198.626 30.464 199.67 30.692 201.086 30.908C202.694 31.172 203.99 31.46 204.974 31.772C205.982 32.06 206.858 32.6 207.602 33.392C208.346 34.16 208.718 35.252 208.718 36.668C208.718 38.852 207.95 40.436 206.414 41.42C204.878 42.38 202.922 42.86 200.546 42.86H199.358C197.87 42.86 196.538 42.632 195.362 42.176C194.186 41.72 193.262 41.072 192.59 40.232C191.942 39.392 191.618 38.432 191.618 37.352L191.654 36.632H196.262V36.884Z" fill="#0A2C37"></path>
    <defs>
        <clipPath id="clip0">
            <rect width="60" height="60" fill="white"></rect>
        </clipPath>
    </defs>
</svg>